# xmcd CD database file
#
# Track frame offsets:
#	150
#	45383
#	92446
#	129212
#	151941
#
# Disc length: 2810 seconds
#
# Revision: 0
# Processed by: cddbd v1.5.2PL0 Copyright (c) Steve Scherf et al.
# Submitted via: CDex 1.75
#
DISCID=2a0af805
DTITLE=The Jazz at Lincoln Center Orchestra w/Wynton Marsalis feat. Wayne Shorter - The Music of Wayne Shorter-CD2
DYEAR=2020
DGENRE=Jazz
TTITLE0=Lost and Found
TTITLE1=Armageddon
TTITLE2=The Three Marias
TTITLE3=Teru
TTITLE4=Mama "G"
EXTD=YEAR: 2020
EXTT0=
EXTT1=
EXTT2=
EXTT3=
EXTT4=
PLAYORDER=
